<svg width="24" height="23" viewBox="0 0 24 23" fill="none" xmlns="http://www.w3.org/2000/svg">
<path d="M0 2.15738H0.842105V6.47214H0V2.15738Z" fill="#F68F28"/>
<path d="M3.36841 20.7108H7.57893V22.0053H3.36841V20.7108Z" fill="#F68F28"/>
<path d="M1.6842 8.09617L3.32394 11.4569C3.35319 11.5168 3.36842 11.5829 3.36841 11.6499V12.9443H7.57894V10.3554C7.57894 10.2988 7.58983 10.2427 7.61099 10.1903C7.63215 10.138 7.66316 10.0904 7.70226 10.0503L8.92399 8.79834C9.03186 8.68842 9.11737 8.55767 9.17559 8.41365C9.23381 8.26964 9.26357 8.11522 9.26315 7.95934V7.3351H7.99999C7.88832 7.3351 7.78123 7.28964 7.70226 7.20872C7.6233 7.1278 7.57894 7.01806 7.57894 6.90362V1.72591C7.57894 1.61148 7.53458 1.50173 7.45562 1.42081C7.37665 1.33989 7.26956 1.29443 7.15789 1.29443C7.04622 1.29443 6.93912 1.33989 6.86016 1.42081C6.7812 1.50173 6.73684 1.61148 6.73684 1.72591V4.31477C6.73684 4.4292 6.69247 4.53895 6.61351 4.61987C6.53455 4.70078 6.42745 4.74624 6.31578 4.74624C6.20411 4.74624 6.09702 4.70078 6.01805 4.61987C5.93909 4.53895 5.89473 4.4292 5.89473 4.31477V1.72591C5.89473 1.61148 5.85037 1.50173 5.77141 1.42081C5.69244 1.33989 5.58535 1.29443 5.47368 1.29443C5.36201 1.29443 5.25491 1.33989 5.17595 1.42081C5.09699 1.50173 5.05262 1.61148 5.05262 1.72591V4.31477C5.05262 4.4292 5.00826 4.53895 4.9293 4.61987C4.85034 4.70078 4.74324 4.74624 4.63157 4.74624C4.5199 4.74624 4.41281 4.70078 4.33384 4.61987C4.25488 4.53895 4.21052 4.4292 4.21052 4.31477V1.72591C4.21052 1.61148 4.16616 1.50173 4.0872 1.42081C4.00823 1.33989 3.90114 1.29443 3.78947 1.29443C3.6778 1.29443 3.5707 1.33989 3.49174 1.42081C3.41278 1.50173 3.36841 1.61148 3.36841 1.72591V4.31477C3.36841 4.4292 3.32405 4.53895 3.24509 4.61987C3.16613 4.70078 3.05903 4.74624 2.94736 4.74624C2.83569 4.74624 2.7286 4.70078 2.64963 4.61987C2.57067 4.53895 2.52631 4.4292 2.52631 4.31477V1.72591C2.52631 1.61148 2.48195 1.50173 2.40299 1.42081C2.32402 1.33989 2.21693 1.29443 2.10526 1.29443C1.99359 1.29443 1.88649 1.33989 1.80753 1.42081C1.72856 1.50173 1.6842 1.61148 1.6842 1.72591V8.09617Z" fill="#F68F28"/>
<path d="M16.233 0.431462C16.0809 0.431036 15.9302 0.461529 15.7897 0.521177C15.6491 0.580825 15.5215 0.668444 15.4142 0.778962L14.1925 2.031C14.1534 2.07106 14.107 2.10284 14.0559 2.12453C14.0048 2.14621 13.9501 2.15737 13.8948 2.15737H8.42108V6.47213H12.6316C12.697 6.47212 12.7615 6.48772 12.8199 6.5177L16.0995 8.19803H22.3158C22.4275 8.19803 22.5346 8.15257 22.6135 8.07165C22.6925 7.99074 22.7369 7.88099 22.7369 7.76655C22.7369 7.65212 22.6925 7.54237 22.6135 7.46145C22.5346 7.38054 22.4275 7.33508 22.3158 7.33508H19.7895C19.6778 7.33508 19.5707 7.28962 19.4918 7.2087C19.4128 7.12779 19.3685 7.01804 19.3685 6.9036C19.3685 6.78917 19.4128 6.67942 19.4918 6.5985C19.5707 6.51759 19.6778 6.47213 19.7895 6.47213H22.3158C22.4275 6.47213 22.5346 6.42667 22.6135 6.34575C22.6925 6.26483 22.7369 6.15509 22.7369 6.04065C22.7369 5.92622 22.6925 5.81647 22.6135 5.73555C22.5346 5.65463 22.4275 5.60917 22.3158 5.60917H19.7895C19.6778 5.60917 19.5707 5.56372 19.4918 5.4828C19.4128 5.40188 19.3685 5.29213 19.3685 5.1777C19.3685 5.06326 19.4128 4.95352 19.4918 4.8726C19.5707 4.79168 19.6778 4.74622 19.7895 4.74622H22.3158C22.4275 4.74622 22.5346 4.70076 22.6135 4.61985C22.6925 4.53893 22.7369 4.42918 22.7369 4.31475C22.7369 4.20031 22.6925 4.09056 22.6135 4.00965C22.5346 3.92873 22.4275 3.88327 22.3158 3.88327H19.7895C19.6778 3.88327 19.5707 3.83781 19.4918 3.75689C19.4128 3.67598 19.3685 3.56623 19.3685 3.45179C19.3685 3.33736 19.4128 3.22761 19.4918 3.14669C19.5707 3.06578 19.6778 3.02032 19.7895 3.02032H22.3158C22.4275 3.02032 22.5346 2.97486 22.6135 2.89394C22.6925 2.81302 22.7369 2.70328 22.7369 2.58884C22.7369 2.47441 22.6925 2.36466 22.6135 2.28374C22.5346 2.20283 22.4275 2.15737 22.3158 2.15737H17.2632C17.1515 2.15737 17.0444 2.11191 16.9655 2.03099C16.8865 1.95007 16.8421 1.84032 16.8421 1.72589V0.431462H16.233Z" fill="#F68F28"/>
<path d="M5.47367 18.9849H2.94736C2.83569 18.9849 2.72859 19.0304 2.64963 19.1113C2.57067 19.1922 2.52631 19.302 2.52631 19.4164C2.52631 19.5308 2.57067 19.6406 2.64963 19.7215C2.72859 19.8024 2.83569 19.8479 2.94736 19.8479H7.99999C8.11166 19.8479 8.21876 19.8933 8.29772 19.9743C8.37668 20.0552 8.42104 20.1649 8.42104 20.2794V21.5738H9.03015C9.18227 21.5742 9.33297 21.5437 9.47351 21.4841C9.61406 21.4244 9.74166 21.3368 9.84894 21.2263L11.0707 19.9743C11.1098 19.9342 11.1562 19.9024 11.2073 19.8807C11.2584 19.859 11.3131 19.8479 11.3684 19.8479H15.1579V15.5331H12.6316C12.5662 15.5331 12.5017 15.5175 12.4433 15.4876L9.16373 13.8072H2.94736C2.83569 13.8072 2.72859 13.8527 2.64963 13.9336C2.57067 14.0145 2.52631 14.1243 2.52631 14.2387C2.52631 14.3531 2.57067 14.4629 2.64963 14.5438C2.72859 14.6247 2.83569 14.6702 2.94736 14.6702H5.47367C5.58534 14.6702 5.69244 14.7156 5.7714 14.7965C5.85037 14.8775 5.89473 14.9872 5.89473 15.1016C5.89473 15.2161 5.85037 15.3258 5.7714 15.4067C5.69244 15.4877 5.58534 15.5331 5.47367 15.5331H2.94736C2.83569 15.5331 2.72859 15.5786 2.64963 15.6595C2.57067 15.7404 2.52631 15.8502 2.52631 15.9646C2.52631 16.079 2.57067 16.1888 2.64963 16.2697C2.72859 16.3506 2.83569 16.3961 2.94736 16.3961H5.47367C5.58534 16.3961 5.69244 16.4415 5.7714 16.5225C5.85037 16.6034 5.89473 16.7131 5.89473 16.8276C5.89473 16.942 5.85037 17.0517 5.7714 17.1327C5.69244 17.2136 5.58534 17.259 5.47367 17.259H2.94736C2.83569 17.259 2.72859 17.3045 2.64963 17.3854C2.57067 17.4663 2.52631 17.5761 2.52631 17.6905C2.52631 17.8049 2.57067 17.9147 2.64963 17.9956C2.72859 18.0765 2.83569 18.122 2.94736 18.122H5.47367C5.58534 18.122 5.69244 18.1674 5.7714 18.2484C5.85037 18.3293 5.89473 18.439 5.89473 18.5535C5.89473 18.6679 5.85037 18.7776 5.7714 18.8586C5.69244 18.9395 5.58534 18.9849 5.47367 18.9849Z" fill="#F68F28"/>
<path d="M17.6842 0H21.8947V1.29443H17.6842V0Z" fill="#F68F28"/>
<path d="M21.4737 20.7109C21.5853 20.7107 21.6923 20.6652 21.7713 20.5843C21.8502 20.5035 21.8946 20.3938 21.8947 20.2794V15.1017C21.8947 14.9872 21.9391 14.8775 22.0181 14.7966C22.097 14.7157 22.2041 14.6702 22.3158 14.6702H23.579V14.046C23.5794 13.8901 23.5496 13.7357 23.4914 13.5916C23.4332 13.4476 23.3477 13.3169 23.2398 13.2069L22.0181 11.955C21.979 11.9149 21.948 11.8673 21.9268 11.815C21.9056 11.7626 21.8947 11.7065 21.8947 11.6499V9.061H17.6842V10.3554C17.6842 10.4224 17.669 10.4885 17.6397 10.5484L16 13.9091V20.2794C16 20.3938 16.0444 20.5036 16.1233 20.5845C16.2023 20.6654 16.3094 20.7109 16.4211 20.7109C16.5327 20.7109 16.6398 20.6654 16.7188 20.5845C16.7977 20.5036 16.8421 20.3938 16.8421 20.2794V17.6905C16.8421 17.5761 16.8865 17.4663 16.9654 17.3854C17.0444 17.3045 17.1515 17.259 17.2632 17.259C17.3748 17.259 17.4819 17.3045 17.5609 17.3854C17.6399 17.4663 17.6842 17.5761 17.6842 17.6905V20.2794C17.6842 20.3938 17.7286 20.5036 17.8075 20.5845C17.8865 20.6654 17.9936 20.7109 18.1053 20.7109C18.2169 20.7109 18.324 20.6654 18.403 20.5845C18.482 20.5036 18.5263 20.3938 18.5263 20.2794V17.6905C18.5263 17.5761 18.5707 17.4663 18.6496 17.3854C18.7286 17.3045 18.8357 17.259 18.9474 17.259C19.059 17.259 19.1661 17.3045 19.2451 17.3854C19.3241 17.4663 19.3684 17.5761 19.3684 17.6905V20.2794C19.3684 20.3938 19.4128 20.5036 19.4918 20.5845C19.5707 20.6654 19.6778 20.7109 19.7895 20.7109C19.9012 20.7109 20.0082 20.6654 20.0872 20.5845C20.1662 20.5036 20.2105 20.3938 20.2105 20.2794V17.6905C20.2105 17.5761 20.2549 17.4663 20.3339 17.3854C20.4128 17.3045 20.5199 17.259 20.6316 17.259C20.7433 17.259 20.8504 17.3045 20.9293 17.3854C21.0083 17.4663 21.0526 17.5761 21.0526 17.6905V20.2794C21.0528 20.3938 21.0972 20.5035 21.1761 20.5843C21.255 20.6652 21.3621 20.7107 21.4737 20.7109V20.7109Z" fill="#F68F28"/>
<path d="M22.7368 15.5331H24V19.8479H22.7368V15.5331Z" fill="#F68F28"/>
<path d="M10.7274 11.7284L12.2105 12.9443L13.6937 11.7284C13.8762 11.5788 14.0095 11.3754 14.0757 11.1457C14.1419 10.916 14.1378 10.671 14.0639 10.4438C14.0238 10.3209 13.9538 10.2105 13.8605 10.1231C13.7671 10.0357 13.6535 9.97418 13.5304 9.94441C13.4073 9.91464 13.2789 9.91759 13.1572 9.95299C13.0356 9.98838 12.9248 10.055 12.8353 10.1466L12.2105 10.7869L11.5858 10.1466C11.4963 10.055 11.3855 9.98838 11.2639 9.95299C11.1422 9.91759 11.0138 9.91464 10.8907 9.94441C10.7676 9.97418 10.654 10.0357 10.5606 10.1231C10.4673 10.2105 10.3973 10.3209 10.3572 10.4438C10.2833 10.671 10.2792 10.916 10.3454 11.1457C10.4116 11.3754 10.5449 11.5788 10.7274 11.7284V11.7284Z" fill="#F68F28"/>
</svg>
