<svg width="24" height="24" viewBox="0 0 24 24" fill="none" xmlns="http://www.w3.org/2000/svg">
<path d="M12 1.87396C10.7302 0.414047 9.43462 -0.00731066 8.48442 9.55588e-05C5.98937 0.0195486 4.26569 2.49098 4.26569 5.01073C4.26569 7.50391 6.73829 9.60572 9.86868 12.2658C10.4077 12.7244 12 14.1005 12 14.1005C12 14.1005 13.5924 12.7245 14.1314 12.2658C17.2618 9.60572 19.7344 7.50391 19.7344 5.01073C19.7344 2.47813 17.982 0.0305642 15.5156 0.00431429C14.5677 -0.00576379 13.2726 0.412359 12 1.87396ZM14.1094 8.48443H12.7032V9.89068H11.2969V8.48443H9.89066V7.07819H11.2969V5.67195H12.7032V7.07819H14.1094V8.48443Z" fill="#F68F28"/>
<path d="M21.8437 9.31409V10.0313C21.8155 12.0703 21.6327 14.7 19.2281 16.5281C18.6797 16.95 17.9906 17.3156 17.1749 17.6391C17.1187 17.5266 16.7249 16.4719 16.6687 16.3172C17.189 16.1204 17.6811 15.8813 18.2296 15.5157C19.6077 14.3485 19.7202 13.8 19.6218 13.5469C19.4531 13.125 18.539 13.2376 18.089 13.3219C16.7812 13.5751 15.0656 14.4328 13.9828 15.5157C13.2234 16.2047 12.7031 17.0766 12.7031 18.061V24H18.3281V23.2969C18.3281 21.6656 18.975 21.1407 20.0437 20.3532C21.689 19.1297 24 17.4563 24 10.5938V5.67197H23.546C21.8458 5.67197 21.8733 7.72433 21.8437 9.31409Z" fill="#F68F28"/>
<path d="M5.67191 23.2969V24H11.2969V18.061C11.2969 17.0766 10.7766 16.2047 10.0173 15.5157C8.9344 14.4328 7.21874 13.5751 5.91098 13.3219C5.46098 13.2376 4.54697 13.1251 4.37822 13.5469C4.27978 13.8 4.39228 14.3484 5.7704 15.5157C6.31883 15.8813 6.81102 16.1204 7.33133 16.3172C7.27513 16.4719 6.88133 17.5266 6.82508 17.6391C6.00941 17.3156 5.3204 16.9499 4.77192 16.5281C2.36729 14.7 2.18447 12.0704 2.1563 10.0313V9.31409C2.12668 7.72433 2.15424 5.67197 0.453997 5.67197H6.10352e-05V10.5938C6.10352e-05 17.4563 2.31099 19.1297 3.95634 20.3531C5.02499 21.1406 5.67191 21.6656 5.67191 23.2969Z" fill="#F68F28"/>
</svg>
