<svg width="24" height="24" viewBox="0 0 24 24" fill="none" xmlns="http://www.w3.org/2000/svg">
<g clip-path="url(#clip0)">
<path d="M23.1176 0.678162H0.882338C0.395749 0.678162 -1.52588e-05 1.0744 -1.52588e-05 1.56051V16.1459C-1.52588e-05 16.6325 0.395749 17.0283 0.882338 17.0283H23.1176C23.6042 17.0283 24 16.6325 24 16.1459V1.56051C24 1.0744 23.6042 0.678162 23.1176 0.678162ZM20.3765 4.9224L20.3016 8.15016C20.2927 8.53416 19.9783 8.83957 19.5962 8.83957C19.5906 8.83957 19.5849 8.83957 19.5793 8.8391C19.1896 8.83016 18.8809 8.50687 18.8903 8.11722L18.9256 6.59157L15.9694 9.4104C15.7299 9.63863 15.3642 9.66969 15.0894 9.48569L12.0847 7.47157L8.87151 10.633C8.6662 10.8347 8.35664 10.8946 8.08657 10.7732L5.03528 9.39957V12.8532H19.6706C20.0602 12.8532 20.3765 13.1695 20.3765 13.5591C20.3765 13.9492 20.0602 14.265 19.6706 14.265H4.3294C3.93975 14.265 3.62351 13.9492 3.62351 13.5591V4.14734C3.62351 3.75769 3.93975 3.44146 4.3294 3.44146C4.71904 3.44146 5.03528 3.75769 5.03528 4.14734V7.85134L8.22587 9.28804L11.5049 6.06169C11.744 5.82687 12.1148 5.79204 12.3929 5.97887L15.4052 7.99769L17.9487 5.57228L16.4268 5.53699C16.0372 5.52804 15.7285 5.20475 15.7374 4.8151C15.7468 4.42546 16.0692 4.11769 16.4597 4.12569L19.687 4.20051C20.0317 4.20051 20.3765 4.4871 20.3765 4.9224Z" fill="#F68F28"/>
<path d="M17.1353 21.9101H14.5802L14.2899 18.4402H9.71012L9.41977 21.9101H6.86471C6.47487 21.9101 6.15882 22.2261 6.15882 22.616C6.15882 23.0058 6.47487 23.3219 6.86471 23.3219H17.1353C17.5251 23.3219 17.8412 23.0058 17.8412 22.616C17.8412 22.2261 17.5251 21.9101 17.1353 21.9101Z" fill="#F68F28"/>
</g>
<defs>
<clipPath id="clip0">
<rect width="24" height="24" fill="white"/>
</clipPath>
</defs>
</svg>
