<svg width="24" height="24" viewBox="0 0 24 24" fill="none" xmlns="http://www.w3.org/2000/svg">
<g clip-path="url(#clip0)">
<path d="M23.5308 6.0166L12.234 2.03077C12.0826 1.97733 11.9175 1.97733 11.7661 2.03077L0.469219 6.0166C0.188344 6.11569 0.000375562 6.381 5.61892e-07 6.67885C-0.000374438 6.97669 0.186985 7.24243 0.467626 7.34218L11.7645 11.3583C11.8407 11.3854 11.9204 11.3989 12 11.3989C12.0797 11.3989 12.1593 11.3854 12.2355 11.3583L23.5324 7.34218C23.813 7.24243 24.0003 6.97669 24 6.67885C23.9996 6.381 23.8117 6.11569 23.5308 6.0166Z" fill="#F68F28"/>
<path d="M22.3112 15.4019V9.26877L20.905 9.76869V15.4019C20.4814 15.6457 20.196 16.1025 20.196 16.6263C20.196 17.1501 20.4814 17.6069 20.905 17.8507V21.3062C20.905 21.6945 21.2198 22.0093 21.6081 22.0093C21.9964 22.0093 22.3112 21.6945 22.3112 21.3062V17.8508C22.7348 17.607 23.0202 17.1501 23.0202 16.6264C23.0202 16.1025 22.7348 15.6457 22.3112 15.4019Z" fill="#F68F28"/>
<path d="M12 12.8052C11.7586 12.8052 11.5209 12.7642 11.2935 12.6833L4.94269 10.4256V13.5197C4.94269 14.2767 5.73239 14.9169 7.28986 15.4224C8.64741 15.863 10.3202 16.1057 12 16.1057C13.6798 16.1057 15.3525 15.863 16.7101 15.4224C18.2676 14.9169 19.0573 14.2767 19.0573 13.5197V10.4256L12.7066 12.6833C12.4791 12.7642 12.2414 12.8052 12 12.8052Z" fill="#F68F28"/>
</g>
<defs>
<clipPath id="clip0">
<rect width="24" height="24" fill="white"/>
</clipPath>
</defs>
</svg>
