<svg width="24" height="20" viewBox="0 0 24 20" fill="none" xmlns="http://www.w3.org/2000/svg">
<path d="M21.2669 1.21218C20.5304 0.168839 19.1093 -0.111537 18.0318 0.574204L12.7059 3.96343V7.34729L21.6434 1.74555L21.2669 1.21218Z" fill="#F68F28"/>
<path d="M11.2941 3.96342L5.96822 0.574195C4.89067 -0.111499 3.46963 0.168784 2.73312 1.21217L2.3566 1.74558L11.2941 7.34723V3.96342Z" fill="#F68F28"/>
<path d="M10.6708 8.62271L0 1.93466V5.46407L7.34936 10.7045L10.6708 8.62271Z" fill="#F68F28"/>
<path d="M14.8235 13.7413V15.202L13.3175 16.1575L19.0588 19.8005H24V16.9769L16.7012 12.4023L14.8235 13.7413Z" fill="#F68F28"/>
<path d="M0 16.9769V19.8005H4.94118L13.4118 14.4258V13.014L24 5.46407V1.93466L0 16.9769Z" fill="#F68F28"/>
</svg>
